<svg xmlns="http://www.w3.org/2000/svg" viewBox="0 0 64 64" width="64" height="64">
  <!-- Background -->
  <rect width="64" height="64" rx="12" fill="#0a0a0f"/>

  <!-- Shield -->
  <path d="M12 18 L32 10 L52 18 L52 44 Q52 56 32 62 Q12 56 12 44 Z"
        fill="#14141e" stroke="#2a2a3a" stroke-width="1.5"/>
  <path d="M12 18 L32 10 L52 18"
        fill="none" stroke="#00e5ff" stroke-width="2.5" stroke-linecap="round" stroke-linejoin="round"/>
  <path d="M12 18 L12 44 Q12 56 32 62 Q52 56 52 44 L52 18"
        fill="none" stroke="#e8e8f0" stroke-width="1.5" stroke-linecap="round" opacity="0.35"/>

  <!-- Lock body -->
  <rect x="22" y="36" width="20" height="16" rx="4"
        fill="none" stroke="#e8e8f0" stroke-width="1.8" opacity="0.85"/>
  <!-- Lock shackle -->
  <path d="M26 36 L26 30 Q26 24 32 24 Q38 24 38 30 L38 36"
        fill="none" stroke="#e8e8f0" stroke-width="1.8" stroke-linecap="round" opacity="0.85"/>
  <!-- Keyhole dot -->
  <circle cx="32" cy="45" r="2.8" fill="#00e5ff"/>
  <rect x="31" y="47" width="2" height="3.5" rx="1" fill="#00e5ff"/>
</svg>
